<?xml version="1.0" encoding="utf-8" standalone="no"?>
<!DOCTYPE svg PUBLIC "-//W3C//DTD SVG 1.1//EN"
  "http://www.w3.org/Graphics/SVG/1.1/DTD/svg11.dtd">
<svg xmlns:xlink="http://www.w3.org/1999/xlink" width="720pt" height="432pt" viewBox="0 0 720 432" xmlns="http://www.w3.org/2000/svg" version="1.1">
 <metadata>
  <rdf:RDF xmlns:dc="http://purl.org/dc/elements/1.1/" xmlns:cc="http://creativecommons.org/ns#" xmlns:rdf="http://www.w3.org/1999/02/22-rdf-syntax-ns#">
   <cc:Work>
    <dc:type rdf:resource="http://purl.org/dc/dcmitype/StillImage"/>
    <dc:date>2023-07-18T22:14:35.959632</dc:date>
    <dc:format>image/svg+xml</dc:format>
    <dc:creator>
     <cc:Agent>
      <dc:title>Matplotlib v3.7.2, https://matplotlib.org/</dc:title>
     </cc:Agent>
    </dc:creator>
   </cc:Work>
  </rdf:RDF>
 </metadata>
 <defs>
  <style type="text/css">*{stroke-linejoin: round; stroke-linecap: butt}</style>
 </defs>
 <g id="figure_1">
  <g id="patch_1">
   <path d="M 0 432 
L 720 432 
L 720 0 
L 0 0 
z
" style="fill: #ffffff"/>
  </g>
  <g id="axes_1">
   <g id="patch_2">
    <path d="M 90 384.48 
L 648 384.48 
L 648 51.84 
L 90 51.84 
z
" style="fill: #ffffff"/>
   </g>
   <g id="matplotlib.axis_1">
    <g id="xtick_1">
     <g id="line2d_1">
      <path d="M 115.363636 384.48 
L 115.363636 51.84 
" clip-path="url(#p0518a6017b)" style="fill: none; stroke: #b0b0b0; stroke-width: 0.8; stroke-linecap: square"/>
     </g>
     <g id="line2d_2">
      <defs>
       <path id="m2a2d984847" d="M 0 0 
L 0 3.5 
" style="stroke: #000000; stroke-width: 0.8"/>
      </defs>
      <g>
       <use xlink:href="#m2a2d984847" x="115.363636" y="384.48" style="stroke: #000000; stroke-width: 0.8"/>
      </g>
     </g>
     <g id="text_1">
      <!-- 0 -->
      <g transform="translate(112.214418 398.970625) scale(0.1 -0.1)">
       <defs>
        <path id="IPAexGothic-30" d="M 2038 4725 
Q 2881 4725 3334 3944 
Q 3694 3325 3694 2344 
Q 3694 1372 3334 741 
Q 2888 -31 2016 -31 
Q 1147 -31 700 741 
Q 341 1372 341 2350 
Q 341 3713 1000 4334 
Q 1419 4725 2038 4725 
z
M 2016 4266 
Q 1516 4266 1228 3759 
Q 934 3247 934 2344 
Q 934 1456 1222 947 
Q 1513 447 2016 447 
Q 2619 447 2909 1153 
Q 3100 1622 3100 2375 
Q 3100 3256 2806 3759 
Q 2509 4266 2016 4266 
z
" transform="scale(0.015625)"/>
       </defs>
       <use xlink:href="#IPAexGothic-30"/>
      </g>
     </g>
    </g>
    <g id="xtick_2">
     <g id="line2d_3">
      <path d="M 178.772727 384.48 
L 178.772727 51.84 
" clip-path="url(#p0518a6017b)" style="fill: none; stroke: #b0b0b0; stroke-width: 0.8; stroke-linecap: square"/>
     </g>
     <g id="line2d_4">
      <g>
       <use xlink:href="#m2a2d984847" x="178.772727" y="384.48" style="stroke: #000000; stroke-width: 0.8"/>
      </g>
     </g>
     <g id="text_2">
      <!-- 5 -->
      <g transform="translate(175.623509 398.970625) scale(0.1 -0.1)">
       <defs>
        <path id="IPAexGothic-35" d="M 1178 2603 
Q 1634 2963 2172 2963 
Q 2816 2963 3241 2528 
Q 3638 2113 3638 1497 
Q 3638 938 3297 513 
Q 2869 -31 2031 -31 
Q 959 -31 469 784 
L 938 1028 
Q 1309 434 2013 434 
Q 2466 434 2769 716 
Q 3081 1013 3081 1503 
Q 3081 1966 2806 2241 
Q 2519 2528 2056 2528 
Q 1406 2528 1072 2028 
L 591 2091 
L 884 4634 
L 3406 4634 
L 3406 4153 
L 1341 4153 
L 1134 2603 
L 1178 2603 
z
" transform="scale(0.015625)"/>
       </defs>
       <use xlink:href="#IPAexGothic-35"/>
      </g>
     </g>
    </g>
    <g id="xtick_3">
     <g id="line2d_5">
      <path d="M 242.181818 384.48 
L 242.181818 51.84 
" clip-path="url(#p0518a6017b)" style="fill: none; stroke: #b0b0b0; stroke-width: 0.8; stroke-linecap: square"/>
     </g>
     <g id="line2d_6">
      <g>
       <use xlink:href="#m2a2d984847" x="242.181818" y="384.48" style="stroke: #000000; stroke-width: 0.8"/>
      </g>
     </g>
     <g id="text_3">
      <!-- 10 -->
      <g transform="translate(235.883381 398.970625) scale(0.1 -0.1)">
       <defs>
        <path id="IPAexGothic-31" d="M 2463 63 
L 1900 63 
L 1900 4103 
Q 1372 3922 788 3797 
L 684 4231 
Q 1519 4441 2106 4731 
L 2463 4731 
L 2463 63 
z
" transform="scale(0.015625)"/>
       </defs>
       <use xlink:href="#IPAexGothic-31"/>
       <use xlink:href="#IPAexGothic-30" x="62.988281"/>
      </g>
     </g>
    </g>
    <g id="xtick_4">
     <g id="line2d_7">
      <path d="M 305.590909 384.48 
L 305.590909 51.84 
" clip-path="url(#p0518a6017b)" style="fill: none; stroke: #b0b0b0; stroke-width: 0.8; stroke-linecap: square"/>
     </g>
     <g id="line2d_8">
      <g>
       <use xlink:href="#m2a2d984847" x="305.590909" y="384.48" style="stroke: #000000; stroke-width: 0.8"/>
      </g>
     </g>
     <g id="text_4">
      <!-- 15 -->
      <g transform="translate(299.292472 398.970625) scale(0.1 -0.1)">
       <use xlink:href="#IPAexGothic-31"/>
       <use xlink:href="#IPAexGothic-35" x="62.988281"/>
      </g>
     </g>
    </g>
    <g id="xtick_5">
     <g id="line2d_9">
      <path d="M 369 384.48 
L 369 51.84 
" clip-path="url(#p0518a6017b)" style="fill: none; stroke: #b0b0b0; stroke-width: 0.8; stroke-linecap: square"/>
     </g>
     <g id="line2d_10">
      <g>
       <use xlink:href="#m2a2d984847" x="369" y="384.48" style="stroke: #000000; stroke-width: 0.8"/>
      </g>
     </g>
     <g id="text_5">
      <!-- 20 -->
      <g transform="translate(362.701563 398.970625) scale(0.1 -0.1)">
       <defs>
        <path id="IPAexGothic-32" d="M 3659 63 
L 447 63 
L 447 594 
Q 825 1475 1894 2203 
L 2072 2322 
Q 2619 2697 2791 2906 
Q 2988 3153 2988 3444 
Q 2988 3772 2756 4003 
Q 2500 4259 2084 4259 
Q 1250 4259 991 3328 
L 497 3506 
Q 853 4725 2116 4725 
Q 2806 4725 3216 4316 
Q 3575 3947 3575 3425 
Q 3575 3038 3344 2722 
Q 3131 2416 2366 1938 
L 2231 1856 
Q 1256 1253 978 569 
L 3659 569 
L 3659 63 
z
" transform="scale(0.015625)"/>
       </defs>
       <use xlink:href="#IPAexGothic-32"/>
       <use xlink:href="#IPAexGothic-30" x="62.988281"/>
      </g>
     </g>
    </g>
    <g id="xtick_6">
     <g id="line2d_11">
      <path d="M 432.409091 384.48 
L 432.409091 51.84 
" clip-path="url(#p0518a6017b)" style="fill: none; stroke: #b0b0b0; stroke-width: 0.8; stroke-linecap: square"/>
     </g>
     <g id="line2d_12">
      <g>
       <use xlink:href="#m2a2d984847" x="432.409091" y="384.48" style="stroke: #000000; stroke-width: 0.8"/>
      </g>
     </g>
     <g id="text_6">
      <!-- 25 -->
      <g transform="translate(426.110653 398.970625) scale(0.1 -0.1)">
       <use xlink:href="#IPAexGothic-32"/>
       <use xlink:href="#IPAexGothic-35" x="62.988281"/>
      </g>
     </g>
    </g>
    <g id="xtick_7">
     <g id="line2d_13">
      <path d="M 495.818182 384.48 
L 495.818182 51.84 
" clip-path="url(#p0518a6017b)" style="fill: none; stroke: #b0b0b0; stroke-width: 0.8; stroke-linecap: square"/>
     </g>
     <g id="line2d_14">
      <g>
       <use xlink:href="#m2a2d984847" x="495.818182" y="384.48" style="stroke: #000000; stroke-width: 0.8"/>
      </g>
     </g>
     <g id="text_7">
      <!-- 30 -->
      <g transform="translate(489.519744 398.970625) scale(0.1 -0.1)">
       <defs>
        <path id="IPAexGothic-33" d="M 2381 2419 
Q 3506 2216 3506 1278 
Q 3506 716 3128 356 
Q 2709 -31 1944 -31 
Q 797 -31 288 881 
L 756 1131 
Q 1109 441 1938 441 
Q 2425 441 2694 691 
Q 2950 928 2950 1291 
Q 2950 1719 2566 1978 
Q 2216 2213 1644 2213 
L 1363 2213 
L 1363 2669 
L 1656 2669 
Q 2231 2669 2534 2888 
Q 2859 3119 2859 3509 
Q 2859 3934 2494 4138 
Q 2259 4278 1931 4278 
Q 1238 4278 903 3578 
L 434 3803 
Q 897 4725 1938 4725 
Q 2597 4725 3006 4394 
Q 3416 4069 3416 3534 
Q 3416 3028 3019 2706 
Q 2763 2500 2381 2444 
L 2381 2419 
z
" transform="scale(0.015625)"/>
       </defs>
       <use xlink:href="#IPAexGothic-33"/>
       <use xlink:href="#IPAexGothic-30" x="62.988281"/>
      </g>
     </g>
    </g>
    <g id="xtick_8">
     <g id="line2d_15">
      <path d="M 559.227273 384.48 
L 559.227273 51.84 
" clip-path="url(#p0518a6017b)" style="fill: none; stroke: #b0b0b0; stroke-width: 0.8; stroke-linecap: square"/>
     </g>
     <g id="line2d_16">
      <g>
       <use xlink:href="#m2a2d984847" x="559.227273" y="384.48" style="stroke: #000000; stroke-width: 0.8"/>
      </g>
     </g>
     <g id="text_8">
      <!-- 35 -->
      <g transform="translate(552.928835 398.970625) scale(0.1 -0.1)">
       <use xlink:href="#IPAexGothic-33"/>
       <use xlink:href="#IPAexGothic-35" x="62.988281"/>
      </g>
     </g>
    </g>
    <g id="xtick_9">
     <g id="line2d_17">
      <path d="M 622.636364 384.48 
L 622.636364 51.84 
" clip-path="url(#p0518a6017b)" style="fill: none; stroke: #b0b0b0; stroke-width: 0.8; stroke-linecap: square"/>
     </g>
     <g id="line2d_18">
      <g>
       <use xlink:href="#m2a2d984847" x="622.636364" y="384.48" style="stroke: #000000; stroke-width: 0.8"/>
      </g>
     </g>
     <g id="text_9">
      <!-- 40 -->
      <g transform="translate(616.337926 398.970625) scale(0.1 -0.1)">
       <defs>
        <path id="IPAexGothic-34" d="M 3813 1159 
L 3059 1159 
L 3059 63 
L 2547 63 
L 2547 1159 
L 197 1159 
L 197 1672 
L 2456 4678 
L 3059 4678 
L 3059 1634 
L 3813 1634 
L 3813 1159 
z
M 2578 4109 
L 2559 4109 
Q 2278 3656 2003 3284 
L 759 1634 
L 2547 1634 
L 2547 3144 
Q 2547 3481 2578 4109 
z
" transform="scale(0.015625)"/>
       </defs>
       <use xlink:href="#IPAexGothic-34"/>
       <use xlink:href="#IPAexGothic-30" x="62.988281"/>
      </g>
     </g>
    </g>
    <g id="text_10">
     <!-- 気温 (℃) -->
     <g transform="translate(349.320312 413.07375) scale(0.1 -0.1)">
      <defs>
       <path id="IPAexGothic-6c17" d="M 1863 4659 
L 5594 4659 
L 5594 4263 
L 1672 4263 
Q 1306 3572 831 3059 
L 531 3397 
Q 1266 4181 1600 5288 
L 2069 5203 
Q 1981 4941 1863 4659 
z
M 5000 2950 
L 5006 2400 
Q 5025 1044 5222 466 
Q 5328 184 5394 184 
Q 5513 184 5638 1191 
L 6047 916 
Q 5847 -450 5422 -450 
Q 5128 -450 4856 147 
Q 4550 819 4550 2381 
L 4550 2553 
L 672 2553 
L 672 2950 
L 5000 2950 
z
M 2388 1106 
Q 1741 1553 1069 1875 
L 1350 2188 
Q 1991 1878 2606 1478 
L 2669 1441 
Q 3034 1894 3250 2431 
L 3681 2241 
Q 3403 1634 3047 1184 
Q 3672 744 4269 231 
L 3944 -128 
Q 3384 391 2759 844 
Q 2031 50 928 -372 
L 653 31 
Q 1728 403 2356 1069 
L 2388 1106 
z
M 1516 3822 
L 4991 3822 
L 4991 3425 
L 1516 3425 
L 1516 3822 
z
" transform="scale(0.015625)"/>
       <path id="IPAexGothic-6e29" d="M 5344 4984 
L 5344 2669 
L 2381 2669 
L 2381 4984 
L 5344 4984 
z
M 2822 4613 
L 2822 4025 
L 4909 4025 
L 4909 4613 
L 2822 4613 
z
M 2822 3659 
L 2822 3041 
L 4909 3041 
L 4909 3659 
L 2822 3659 
z
M 5628 2131 
L 5628 178 
L 6094 178 
L 6094 -225 
L 1631 -225 
L 1631 178 
L 2138 178 
L 2138 2131 
L 5628 2131 
z
M 2553 1747 
L 2553 178 
L 3169 178 
L 3169 1747 
L 2553 1747 
z
M 5213 178 
L 5213 1747 
L 4572 1747 
L 4572 178 
L 5213 178 
z
M 3566 1747 
L 3566 178 
L 4175 178 
L 4175 1747 
L 3566 1747 
z
M 1613 3859 
Q 1247 4297 706 4716 
L 1013 5063 
Q 1494 4731 1934 4244 
L 1613 3859 
z
M 1422 2388 
Q 975 2903 475 3250 
L 781 3609 
Q 1338 3225 1747 2759 
L 1422 2388 
z
M 353 19 
Q 969 806 1466 1919 
L 1800 1563 
Q 1303 422 731 -372 
L 353 19 
z
" transform="scale(0.015625)"/>
       <path id="IPAexGothic-20" transform="scale(0.015625)"/>
       <path id="IPAexGothic-28" d="M 1928 -1016 
L 1653 -1166 
Q 488 69 488 1875 
Q 488 3678 1653 4909 
L 1928 4763 
Q 1006 3522 1006 1881 
Q 1006 203 1928 -1016 
z
" transform="scale(0.015625)"/>
       <path id="IPAexGothic-2103" d="M 1056 5300 
Q 1363 5300 1581 5063 
Q 1766 4856 1766 4584 
Q 1766 4372 1650 4197 
Q 1441 3866 1050 3866 
Q 878 3866 709 3956 
Q 331 4159 331 4591 
Q 331 4944 631 5166 
Q 816 5300 1056 5300 
z
M 1050 5019 
Q 916 5019 784 4928 
Q 613 4803 613 4584 
Q 613 4472 669 4366 
Q 794 4147 1056 4147 
Q 1200 4147 1313 4231 
Q 1484 4366 1484 4584 
Q 1484 4791 1331 4916 
Q 1209 5019 1050 5019 
z
M 5706 1869 
Q 5572 1244 5194 838 
Q 4603 197 3659 197 
Q 2600 197 2009 972 
Q 1528 1606 1528 2559 
Q 1528 3369 1938 3988 
Q 2559 4934 3672 4934 
Q 4428 4934 4953 4506 
Q 5409 4134 5613 3488 
L 4991 3488 
Q 4703 4434 3672 4434 
Q 2884 4434 2456 3775 
Q 2122 3281 2122 2553 
Q 2122 1850 2397 1394 
Q 2813 709 3659 709 
Q 4369 709 4778 1216 
Q 4994 1481 5081 1869 
L 5706 1869 
z
" transform="scale(0.015625)"/>
       <path id="IPAexGothic-29" d="M 466 4909 
Q 1638 3672 1638 1875 
Q 1638 75 466 -1166 
L 191 -1016 
Q 1119 216 1119 1881 
Q 1119 3509 191 4763 
L 466 4909 
z
" transform="scale(0.015625)"/>
      </defs>
      <use xlink:href="#IPAexGothic-6c17"/>
      <use xlink:href="#IPAexGothic-6e29" x="100"/>
      <use xlink:href="#IPAexGothic-20" x="200"/>
      <use xlink:href="#IPAexGothic-28" x="227.001953"/>
      <use xlink:href="#IPAexGothic-2103" x="260.302734"/>
      <use xlink:href="#IPAexGothic-29" x="360.302734"/>
     </g>
    </g>
   </g>
   <g id="matplotlib.axis_2">
    <g id="ytick_1">
     <g id="line2d_19">
      <path d="M 90 331.906789 
L 648 331.906789 
" clip-path="url(#p0518a6017b)" style="fill: none; stroke: #b0b0b0; stroke-width: 0.8; stroke-linecap: square"/>
     </g>
     <g id="line2d_20">
      <defs>
       <path id="m3ef7f0e4a4" d="M 0 0 
L -3.5 0 
" style="stroke: #000000; stroke-width: 0.8"/>
      </defs>
      <g>
       <use xlink:href="#m3ef7f0e4a4" x="90" y="331.906789" style="stroke: #000000; stroke-width: 0.8"/>
      </g>
     </g>
     <g id="text_11">
      <!-- 5 -->
      <g transform="translate(76.701562 335.652101) scale(0.1 -0.1)">
       <use xlink:href="#IPAexGothic-35"/>
      </g>
     </g>
    </g>
    <g id="ytick_2">
     <g id="line2d_21">
      <path d="M 90 269.484771 
L 648 269.484771 
" clip-path="url(#p0518a6017b)" style="fill: none; stroke: #b0b0b0; stroke-width: 0.8; stroke-linecap: square"/>
     </g>
     <g id="line2d_22">
      <g>
       <use xlink:href="#m3ef7f0e4a4" x="90" y="269.484771" style="stroke: #000000; stroke-width: 0.8"/>
      </g>
     </g>
     <g id="text_12">
      <!-- 10 -->
      <g transform="translate(70.403125 273.230083) scale(0.1 -0.1)">
       <use xlink:href="#IPAexGothic-31"/>
       <use xlink:href="#IPAexGothic-30" x="62.988281"/>
      </g>
     </g>
    </g>
    <g id="ytick_3">
     <g id="line2d_23">
      <path d="M 90 207.062752 
L 648 207.062752 
" clip-path="url(#p0518a6017b)" style="fill: none; stroke: #b0b0b0; stroke-width: 0.8; stroke-linecap: square"/>
     </g>
     <g id="line2d_24">
      <g>
       <use xlink:href="#m3ef7f0e4a4" x="90" y="207.062752" style="stroke: #000000; stroke-width: 0.8"/>
      </g>
     </g>
     <g id="text_13">
      <!-- 15 -->
      <g transform="translate(70.403125 210.808065) scale(0.1 -0.1)">
       <use xlink:href="#IPAexGothic-31"/>
       <use xlink:href="#IPAexGothic-35" x="62.988281"/>
      </g>
     </g>
    </g>
    <g id="ytick_4">
     <g id="line2d_25">
      <path d="M 90 144.640734 
L 648 144.640734 
" clip-path="url(#p0518a6017b)" style="fill: none; stroke: #b0b0b0; stroke-width: 0.8; stroke-linecap: square"/>
     </g>
     <g id="line2d_26">
      <g>
       <use xlink:href="#m3ef7f0e4a4" x="90" y="144.640734" style="stroke: #000000; stroke-width: 0.8"/>
      </g>
     </g>
     <g id="text_14">
      <!-- 20 -->
      <g transform="translate(70.403125 148.386046) scale(0.1 -0.1)">
       <use xlink:href="#IPAexGothic-32"/>
       <use xlink:href="#IPAexGothic-30" x="62.988281"/>
      </g>
     </g>
    </g>
    <g id="ytick_5">
     <g id="line2d_27">
      <path d="M 90 82.218716 
L 648 82.218716 
" clip-path="url(#p0518a6017b)" style="fill: none; stroke: #b0b0b0; stroke-width: 0.8; stroke-linecap: square"/>
     </g>
     <g id="line2d_28">
      <g>
       <use xlink:href="#m3ef7f0e4a4" x="90" y="82.218716" style="stroke: #000000; stroke-width: 0.8"/>
      </g>
     </g>
     <g id="text_15">
      <!-- 25 -->
      <g transform="translate(70.403125 85.964028) scale(0.1 -0.1)">
       <use xlink:href="#IPAexGothic-32"/>
       <use xlink:href="#IPAexGothic-35" x="62.988281"/>
      </g>
     </g>
    </g>
    <g id="text_16">
     <!-- 電力使用量 (kW) -->
     <g transform="translate(64.503125 255.071719) rotate(-90) scale(0.1 -0.1)">
      <defs>
       <path id="IPAexGothic-96fb" d="M 2956 4378 
L 2956 4741 
L 1053 4741 
L 1053 5106 
L 5338 5106 
L 5338 4741 
L 3397 4741 
L 3397 4378 
L 5797 4378 
L 5797 3084 
L 5344 3084 
L 5344 4031 
L 3397 4031 
L 3397 2638 
L 2956 2638 
L 2956 4031 
L 1047 4031 
L 1047 3072 
L 594 3072 
L 594 4378 
L 2956 4378 
z
M 3363 544 
L 3363 238 
Q 3363 59 3497 31 
Q 3600 6 4491 6 
Q 5219 6 5347 31 
Q 5556 78 5584 281 
Q 5609 500 5616 684 
L 6038 556 
Q 6028 -109 5797 -256 
Q 5619 -378 4419 -378 
Q 3256 -378 3128 -313 
Q 2959 -225 2959 91 
L 2959 544 
L 1456 544 
L 1456 166 
L 1034 166 
L 1034 2400 
L 5316 2400 
L 5316 544 
L 3363 544 
z
M 2959 2059 
L 1456 2059 
L 1456 1666 
L 2959 1666 
L 2959 2059 
z
M 3363 2059 
L 3363 1666 
L 4900 1666 
L 4900 2059 
L 3363 2059 
z
M 2959 1325 
L 1456 1325 
L 1456 897 
L 2959 897 
L 2959 1325 
z
M 3363 1325 
L 3363 897 
L 4900 897 
L 4900 1325 
L 3363 1325 
z
M 1338 3688 
L 2663 3688 
L 2663 3375 
L 1338 3375 
L 1338 3688 
z
M 1338 3072 
L 2663 3072 
L 2663 2753 
L 1338 2753 
L 1338 3072 
z
M 3691 3688 
L 5053 3688 
L 5053 3375 
L 3691 3375 
L 3691 3688 
z
M 3691 3072 
L 5053 3072 
L 5053 2753 
L 3691 2753 
L 3691 3072 
z
" transform="scale(0.015625)"/>
       <path id="IPAexGothic-529b" d="M 3303 3944 
L 5653 3944 
Q 5622 1247 5428 356 
Q 5303 -231 4647 -231 
Q 4159 -231 3456 -147 
L 3381 416 
Q 4022 263 4456 263 
Q 4881 263 4947 616 
Q 5106 1509 5134 3303 
L 5141 3509 
L 3291 3509 
Q 3234 2200 2741 1281 
Q 2194 297 878 -416 
L 525 -6 
Q 2709 963 2778 3450 
L 641 3450 
L 641 3891 
L 2784 3891 
L 2784 5147 
L 3303 5147 
L 3303 3944 
z
" transform="scale(0.015625)"/>
       <path id="IPAexGothic-4f7f" d="M 3700 3547 
L 3700 4103 
L 1894 4103 
L 1894 4500 
L 3700 4500 
L 3700 5306 
L 4141 5306 
L 4141 4500 
L 5981 4500 
L 5981 4103 
L 4141 4103 
L 4141 3547 
L 5638 3547 
L 5638 1484 
L 5209 1484 
L 5209 1809 
L 4134 1809 
Q 4106 1163 3922 741 
Q 4784 241 6103 19 
L 5816 -419 
Q 4619 -150 3713 394 
Q 3238 -234 2059 -541 
L 1772 -138 
Q 2941 75 3366 625 
Q 2925 963 2563 1322 
L 2884 1566 
Q 3213 1228 3553 978 
Q 3684 1363 3694 1809 
L 2634 1809 
L 2634 1484 
L 2206 1484 
L 2206 3547 
L 3700 3547 
z
M 3700 3163 
L 2634 3163 
L 2634 2194 
L 3700 2194 
L 3700 3163 
z
M 4141 3163 
L 4141 2194 
L 5209 2194 
L 5209 3163 
L 4141 3163 
z
M 1509 3769 
L 1509 -447 
L 1069 -447 
L 1069 2822 
Q 813 2363 531 1972 
L 288 2363 
Q 1147 3628 1528 5331 
L 1975 5222 
Q 1747 4356 1509 3769 
z
" transform="scale(0.015625)"/>
       <path id="IPAexGothic-7528" d="M 5553 4891 
L 5553 203 
Q 5553 -53 5456 -169 
Q 5328 -316 4941 -316 
Q 4544 -316 4191 -275 
L 4113 203 
Q 4516 131 4875 131 
Q 5106 131 5106 372 
L 5106 1625 
L 3441 1625 
L 3441 -103 
L 3000 -103 
L 3000 1625 
L 1469 1625 
Q 1441 234 816 -488 
L 459 -134 
Q 1022 466 1022 1831 
L 1022 4891 
L 5553 4891 
z
M 1475 4500 
L 1475 3469 
L 3000 3469 
L 3000 4500 
L 1475 4500 
z
M 1475 3084 
L 1475 2009 
L 3000 2009 
L 3000 3084 
L 1475 3084 
z
M 5106 2009 
L 5106 3084 
L 3441 3084 
L 3441 2009 
L 5106 2009 
z
M 5106 3469 
L 5106 4500 
L 3441 4500 
L 3441 3469 
L 5106 3469 
z
" transform="scale(0.015625)"/>
       <path id="IPAexGothic-91cf" d="M 5081 5159 
L 5081 3497 
L 1275 3497 
L 1275 5159 
L 5081 5159 
z
M 1716 4819 
L 1716 4475 
L 4647 4475 
L 4647 4819 
L 1716 4819 
z
M 1716 4175 
L 1716 3816 
L 4647 3816 
L 4647 4175 
L 1716 4175 
z
M 5238 2625 
L 5238 997 
L 3388 997 
L 3388 694 
L 5428 694 
L 5428 353 
L 3388 353 
L 3388 34 
L 6044 34 
L 6044 -331 
L 353 -331 
L 353 34 
L 2972 34 
L 2972 353 
L 969 353 
L 969 694 
L 2972 694 
L 2972 997 
L 1159 997 
L 1159 2625 
L 5238 2625 
z
M 1588 2325 
L 1588 1972 
L 2972 1972 
L 2972 2325 
L 1588 2325 
z
M 1588 1672 
L 1588 1303 
L 2972 1303 
L 2972 1672 
L 1588 1672 
z
M 4809 1303 
L 4809 1672 
L 3388 1672 
L 3388 1303 
L 4809 1303 
z
M 4809 1972 
L 4809 2325 
L 3388 2325 
L 3388 1972 
L 4809 1972 
z
M 384 3231 
L 6009 3231 
L 6009 2884 
L 384 2884 
L 384 3231 
z
" transform="scale(0.015625)"/>
       <path id="IPAexGothic-6b" d="M 3244 63 
L 2578 63 
L 1484 1613 
L 1119 1259 
L 1119 63 
L 581 63 
L 581 4794 
L 1119 4794 
L 1119 1766 
L 2463 3250 
L 3153 3250 
L 1828 1925 
L 3244 63 
z
" transform="scale(0.015625)"/>
       <path id="IPAexGothic-57" d="M 5888 4634 
L 4466 0 
L 4038 0 
L 3219 2759 
Q 3084 3209 2981 3738 
L 2963 3738 
Q 2866 3288 2713 2759 
L 1888 0 
L 1453 0 
L 44 4634 
L 672 4634 
L 1406 2041 
Q 1572 1444 1694 928 
L 1716 928 
Q 1819 1406 2003 2041 
L 2725 4556 
L 3213 4556 
L 3972 2041 
Q 4128 1541 4269 922 
L 4288 922 
Q 4441 1603 4563 2041 
L 5291 4634 
L 5888 4634 
z
" transform="scale(0.015625)"/>
      </defs>
      <use xlink:href="#IPAexGothic-96fb"/>
      <use xlink:href="#IPAexGothic-529b" x="100"/>
      <use xlink:href="#IPAexGothic-4f7f" x="200"/>
      <use xlink:href="#IPAexGothic-7528" x="300"/>
      <use xlink:href="#IPAexGothic-91cf" x="400"/>
      <use xlink:href="#IPAexGothic-20" x="500"/>
      <use xlink:href="#IPAexGothic-28" x="527.001953"/>
      <use xlink:href="#IPAexGothic-6b" x="560.302734"/>
      <use xlink:href="#IPAexGothic-57" x="612.109375"/>
      <use xlink:href="#IPAexGothic-29" x="704.931641"/>
     </g>
    </g>
   </g>
   <g id="line2d_29">
    <path d="M 115.363636 141.866422 
L 124.240909 154.077833 
L 133.118182 165.854233 
L 140.727273 175.602055 
L 148.336364 185.030277 
L 155.945455 194.138898 
L 163.554545 202.927918 
L 171.163636 211.397337 
L 178.772727 219.547156 
L 186.381818 227.377374 
L 193.990909 234.887991 
L 201.6 242.079008 
L 209.209091 248.950423 
L 216.818182 255.502239 
L 224.427273 261.734453 
L 232.036364 267.647066 
L 239.645455 273.240079 
L 247.254545 278.513491 
L 254.863636 283.467303 
L 261.204545 287.351339 
L 267.545455 291.013431 
L 273.886364 294.453578 
L 280.227273 297.67178 
L 286.568182 300.668037 
L 292.909091 303.442349 
L 299.25 305.994716 
L 305.590909 308.325138 
L 311.931818 310.433615 
L 318.272727 312.320147 
L 324.613636 313.984734 
L 330.954545 315.427376 
L 337.295455 316.648073 
L 343.636364 317.646826 
L 349.977273 318.423633 
L 356.318182 318.978495 
L 362.659091 319.311413 
L 369 319.422385 
L 375.340909 319.311413 
L 381.681818 318.978495 
L 388.022727 318.423633 
L 394.363636 317.646826 
L 400.704545 316.648073 
L 407.045455 315.427376 
L 413.386364 313.984734 
L 419.727273 312.320147 
L 426.068182 310.433615 
L 432.409091 308.325138 
L 438.75 305.994716 
L 445.090909 303.442349 
L 451.431818 300.668037 
L 457.772727 297.67178 
L 464.113636 294.453578 
L 470.454545 291.013431 
L 476.795455 287.351339 
L 483.136364 283.467303 
L 489.477273 279.361321 
L 497.086364 274.141176 
L 504.695455 268.60143 
L 512.304545 262.742083 
L 519.913636 256.563135 
L 527.522727 250.064587 
L 535.131818 243.246438 
L 542.740909 236.108688 
L 550.35 228.651338 
L 557.959091 220.874387 
L 565.568182 212.777835 
L 573.177273 204.361682 
L 580.786364 195.625929 
L 588.395455 186.570575 
L 596.004545 177.19562 
L 603.613636 167.501064 
L 611.222727 157.486908 
L 618.831818 147.153151 
L 622.636364 141.866422 
L 622.636364 141.866422 
" clip-path="url(#p0518a6017b)" style="fill: none; stroke: #1f77b4; stroke-width: 1.5; stroke-linecap: square"/>
   </g>
   <g id="line2d_30">
    <path d="M 115.363636 319.422385 
L 178.772727 319.422385 
L 495.818182 369.36 
L 622.636364 369.36 
L 622.636364 369.36 
" clip-path="url(#p0518a6017b)" style="fill: none; stroke: #ff7f0e; stroke-width: 1.5; stroke-linecap: square"/>
   </g>
   <g id="line2d_31">
    <path d="M 115.363636 66.96 
L 124.240909 79.171411 
L 133.118182 90.947811 
L 140.727273 100.695633 
L 148.336364 110.123855 
L 155.945455 119.232476 
L 163.554545 128.021496 
L 171.163636 136.490915 
L 181.309091 147.685819 
L 188.918182 156.608006 
L 196.527273 165.210592 
L 204.136364 173.493578 
L 211.745455 181.456963 
L 219.354545 189.100747 
L 226.963636 196.424931 
L 234.572727 203.429513 
L 242.181818 210.114495 
L 249.790909 216.479877 
L 257.4 222.525657 
L 265.009091 228.251837 
L 272.618182 233.658416 
L 280.227273 238.745394 
L 286.568182 242.740404 
L 292.909091 246.513468 
L 299.25 250.064587 
L 305.590909 253.393761 
L 311.931818 256.500991 
L 318.272727 259.386275 
L 324.613636 262.049615 
L 330.954545 264.491009 
L 337.295455 266.710459 
L 343.636364 268.707963 
L 349.977273 270.483523 
L 356.318182 272.037138 
L 362.659091 273.368807 
L 369 274.478532 
L 375.340909 275.366312 
L 381.681818 276.032147 
L 388.022727 276.476037 
L 394.363636 276.697982 
L 400.704545 276.697982 
L 407.045455 276.476037 
L 413.386364 276.032147 
L 419.727273 275.366312 
L 426.068182 274.478532 
L 432.409091 273.368807 
L 438.75 272.037138 
L 445.090909 270.483523 
L 451.431818 268.707963 
L 457.772727 266.710459 
L 464.113636 264.491009 
L 470.454545 262.049615 
L 476.795455 259.386275 
L 483.136364 256.500991 
L 489.477273 253.393761 
L 495.818182 250.064587 
L 503.427273 244.578108 
L 511.036364 238.772028 
L 518.645455 232.646347 
L 526.254545 226.201066 
L 533.863636 219.436183 
L 541.472727 212.351701 
L 549.081818 204.947617 
L 556.690909 197.223932 
L 564.3 189.180647 
L 571.909091 180.817761 
L 579.518182 172.135275 
L 587.127273 163.133188 
L 594.736364 153.811499 
L 602.345455 144.170211 
L 609.954545 134.209321 
L 617.563636 123.928831 
L 622.636364 116.897615 
L 622.636364 116.897615 
" clip-path="url(#p0518a6017b)" style="fill: none; stroke-dasharray: 5.55,2.4; stroke-dashoffset: 0; stroke: #2ca02c; stroke-width: 1.5"/>
   </g>
   <g id="patch_3">
    <path d="M 90 384.48 
L 90 51.84 
" style="fill: none; stroke: #000000; stroke-width: 0.8; stroke-linejoin: miter; stroke-linecap: square"/>
   </g>
   <g id="patch_4">
    <path d="M 648 384.48 
L 648 51.84 
" style="fill: none; stroke: #000000; stroke-width: 0.8; stroke-linejoin: miter; stroke-linecap: square"/>
   </g>
   <g id="patch_5">
    <path d="M 90 384.48 
L 648 384.48 
" style="fill: none; stroke: #000000; stroke-width: 0.8; stroke-linejoin: miter; stroke-linecap: square"/>
   </g>
   <g id="patch_6">
    <path d="M 90 51.84 
L 648 51.84 
" style="fill: none; stroke: #000000; stroke-width: 0.8; stroke-linejoin: miter; stroke-linecap: square"/>
   </g>
   <g id="text_17">
    <!-- 電力使用量の簡易モデル -->
    <g transform="translate(303 45.84) scale(0.12 -0.12)">
     <defs>
      <path id="IPAexGothic-306e" d="M 3119 469 
Q 5275 766 5275 2425 
Q 5275 3453 4413 3925 
Q 4041 4116 3547 4159 
Q 3394 2525 2850 1400 
Q 2322 306 1722 306 
Q 1384 306 1084 666 
Q 609 1244 609 2003 
Q 609 3025 1397 3794 
Q 2184 4563 3431 4563 
Q 4306 4563 4928 4122 
Q 5813 3506 5813 2425 
Q 5813 438 3431 6 
L 3119 469 
z
M 3053 4147 
Q 2378 4044 1891 3641 
Q 1097 2981 1097 1991 
Q 1097 1366 1434 978 
Q 1581 813 1719 813 
Q 2022 813 2416 1625 
Q 2909 2638 3053 4147 
z
" transform="scale(0.015625)"/>
      <path id="IPAexGothic-7c21" d="M 2925 3763 
L 2925 2131 
L 1131 2131 
L 1131 -447 
L 691 -447 
L 691 3738 
Q 663 3709 563 3622 
L 250 3922 
Q 844 4453 1163 5366 
L 1606 5281 
Q 1575 5191 1525 5059 
Q 1472 4919 1459 4884 
L 3163 4884 
L 3163 4525 
L 2156 4525 
Q 2159 4519 2200 4447 
Q 2322 4225 2425 3956 
L 1997 3834 
Q 1869 4200 1694 4525 
L 1284 4525 
Q 1056 4094 716 3763 
L 2925 3763 
z
M 1131 3431 
L 1131 3122 
L 2509 3122 
L 2509 3431 
L 1131 3431 
z
M 2509 2809 
L 1131 2809 
L 1131 2472 
L 2509 2472 
L 2509 2809 
z
M 4481 1850 
L 4481 134 
L 2297 134 
L 2297 -134 
L 1881 -134 
L 1881 1850 
L 4481 1850 
z
M 4059 1519 
L 2297 1519 
L 2297 1163 
L 4059 1163 
L 4059 1519 
z
M 4059 850 
L 2297 850 
L 2297 475 
L 4059 475 
L 4059 850 
z
M 5269 2131 
L 3431 2131 
L 3431 3763 
L 5709 3763 
L 5709 84 
Q 5709 -197 5594 -300 
Q 5494 -391 5231 -391 
Q 4834 -391 4525 -347 
L 4469 84 
Q 4944 13 5072 13 
Q 5269 13 5269 197 
L 5269 2131 
z
M 5269 2472 
L 5269 2809 
L 3847 2809 
L 3847 2472 
L 5269 2472 
z
M 5269 3122 
L 5269 3431 
L 3847 3431 
L 3847 3122 
L 5269 3122 
z
M 3925 4884 
L 6028 4884 
L 6028 4525 
L 4678 4525 
Q 4834 4266 4966 3975 
L 4525 3834 
Q 4406 4175 4206 4525 
L 3775 4525 
Q 3566 4072 3253 3731 
L 2919 3988 
Q 3378 4522 3622 5366 
L 4059 5300 
Q 4003 5116 3925 4884 
z
" transform="scale(0.015625)"/>
      <path id="IPAexGothic-6613" d="M 4469 1856 
Q 3972 378 2556 -441 
L 2216 -122 
Q 3556 625 4009 1856 
L 3213 1856 
Q 2578 634 1109 -116 
L 763 219 
Q 2122 841 2722 1856 
L 1903 1856 
Q 1400 1394 813 1075 
L 500 1441 
Q 1591 1963 2144 2784 
L 1288 2784 
L 1288 5025 
L 5116 5025 
L 5116 2784 
L 2644 2784 
Q 2497 2525 2259 2241 
L 5728 2241 
Q 5603 538 5469 103 
Q 5313 -428 4706 -428 
Q 4294 -428 3906 -378 
L 3847 97 
Q 4297 6 4634 6 
Q 4938 6 5031 294 
Q 5156 678 5244 1788 
L 5244 1856 
L 4469 1856 
z
M 1734 4653 
L 1734 4097 
L 4659 4097 
L 4659 4653 
L 1734 4653 
z
M 1734 3738 
L 1734 3156 
L 4659 3156 
L 4659 3738 
L 1734 3738 
z
" transform="scale(0.015625)"/>
      <path id="IPAexGothic-30e2" d="M 1216 4409 
L 5147 4409 
L 5147 3950 
L 3053 3950 
L 3053 2797 
L 5644 2797 
L 5644 2328 
L 3053 2328 
L 3053 972 
Q 3053 669 3272 600 
Q 3453 544 4013 544 
Q 4556 544 5269 600 
L 5269 97 
Q 4684 50 4147 50 
Q 3025 50 2753 250 
Q 2541 403 2541 825 
L 2541 2328 
L 744 2328 
L 744 2797 
L 2541 2797 
L 2541 3950 
L 1216 3950 
L 1216 4409 
z
" transform="scale(0.015625)"/>
      <path id="IPAexGothic-30c7" d="M 563 3072 
L 5741 3072 
L 5741 2613 
L 3578 2613 
Q 3538 1516 3134 872 
Q 2688 156 1663 -256 
L 1313 156 
Q 2338 538 2713 1166 
Q 3003 1644 3034 2613 
L 563 2613 
L 563 3072 
z
M 1406 4588 
L 4588 4588 
L 4588 4128 
L 1406 4128 
L 1406 4588 
z
M 6009 4469 
Q 5647 5009 5253 5338 
L 5553 5569 
Q 5938 5259 6328 4744 
L 6009 4469 
z
M 5413 4000 
Q 5125 4491 4678 4891 
L 4991 5131 
Q 5363 4825 5747 4275 
L 5413 4000 
z
" transform="scale(0.015625)"/>
      <path id="IPAexGothic-30eb" d="M 353 331 
Q 1313 994 1544 2022 
Q 1684 2650 1684 4397 
L 2203 4397 
L 2203 4153 
L 2203 4116 
Q 2203 2259 1934 1491 
Q 1619 588 744 -38 
L 353 331 
z
M 3125 4666 
L 3650 4666 
L 3650 769 
Q 4875 1488 5672 2734 
L 6000 2278 
Q 5075 966 3516 63 
L 3125 359 
L 3125 4666 
z
" transform="scale(0.015625)"/>
     </defs>
     <use xlink:href="#IPAexGothic-96fb"/>
     <use xlink:href="#IPAexGothic-529b" x="100"/>
     <use xlink:href="#IPAexGothic-4f7f" x="200"/>
     <use xlink:href="#IPAexGothic-7528" x="300"/>
     <use xlink:href="#IPAexGothic-91cf" x="400"/>
     <use xlink:href="#IPAexGothic-306e" x="500"/>
     <use xlink:href="#IPAexGothic-7c21" x="600"/>
     <use xlink:href="#IPAexGothic-6613" x="700"/>
     <use xlink:href="#IPAexGothic-30e2" x="800"/>
     <use xlink:href="#IPAexGothic-30c7" x="900"/>
     <use xlink:href="#IPAexGothic-30eb" x="1000"/>
    </g>
   </g>
   <g id="legend_1">
    <g id="patch_7">
     <path d="M 489 103.011875 
L 641 103.011875 
Q 643 103.011875 643 101.011875 
L 643 58.84 
Q 643 56.84 641 56.84 
L 489 56.84 
Q 487 56.84 487 58.84 
L 487 101.011875 
Q 487 103.011875 489 103.011875 
z
" style="fill: #ffffff; opacity: 0.8; stroke: #cccccc; stroke-linejoin: miter"/>
    </g>
    <g id="line2d_32">
     <path d="M 491 64.830625 
L 501 64.830625 
L 511 64.830625 
" style="fill: none; stroke: #1f77b4; stroke-width: 1.5; stroke-linecap: square"/>
    </g>
    <g id="text_18">
     <!-- 家の電力使用量 -->
     <g transform="translate(519 68.330625) scale(0.1 -0.1)">
      <defs>
       <path id="IPAexGothic-5bb6" d="M 3306 1425 
Q 2331 363 722 -225 
L 447 141 
Q 2175 709 3178 1828 
Q 3106 1988 3000 2150 
Q 2141 1347 806 819 
L 531 1178 
Q 1791 1553 2784 2438 
Q 2638 2600 2541 2700 
Q 1644 2128 728 1869 
L 478 2219 
Q 1722 2553 2694 3275 
L 1363 3275 
L 1363 3659 
L 5028 3659 
L 5028 3275 
L 3838 3275 
Q 4034 2600 4344 2072 
Q 4972 2547 5331 2988 
L 5722 2706 
Q 5288 2253 4625 1791 
L 4556 1741 
Q 5128 941 5975 391 
L 5625 -44 
Q 3975 1275 3428 3275 
L 3294 3275 
Q 3106 3109 2853 2916 
Q 3838 2047 3838 691 
Q 3838 138 3703 -141 
Q 3559 -447 3044 -447 
Q 2731 -447 2394 -403 
L 2303 63 
Q 2700 -19 2975 -19 
Q 3263 -19 3341 200 
Q 3397 372 3397 672 
Q 3397 1028 3306 1425 
z
M 3413 4550 
L 5778 4550 
L 5778 3341 
L 5319 3341 
L 5319 4159 
L 1075 4159 
L 1075 3341 
L 606 3341 
L 606 4550 
L 2938 4550 
L 2938 5313 
L 3413 5313 
L 3413 4550 
z
" transform="scale(0.015625)"/>
      </defs>
      <use xlink:href="#IPAexGothic-5bb6"/>
      <use xlink:href="#IPAexGothic-306e" x="100"/>
      <use xlink:href="#IPAexGothic-96fb" x="200"/>
      <use xlink:href="#IPAexGothic-529b" x="300"/>
      <use xlink:href="#IPAexGothic-4f7f" x="400"/>
      <use xlink:href="#IPAexGothic-7528" x="500"/>
      <use xlink:href="#IPAexGothic-91cf" x="600"/>
     </g>
    </g>
    <g id="line2d_33">
     <path d="M 491 79.22125 
L 501 79.22125 
L 511 79.22125 
" style="fill: none; stroke: #ff7f0e; stroke-width: 1.5; stroke-linecap: square"/>
    </g>
    <g id="text_19">
     <!-- エコキュートの電力使用量 -->
     <g transform="translate(519 82.72125) scale(0.1 -0.1)">
      <defs>
       <path id="IPAexGothic-30a8" d="M 1109 4063 
L 5294 4063 
L 5294 3594 
L 3444 3594 
L 3444 988 
L 5759 988 
L 5759 513 
L 641 513 
L 641 988 
L 2913 988 
L 2913 3594 
L 1109 3594 
L 1109 4063 
z
" transform="scale(0.015625)"/>
       <path id="IPAexGothic-30b3" d="M 1134 4213 
L 5166 4213 
L 5166 153 
L 4653 153 
L 4653 594 
L 1063 594 
L 1063 1088 
L 4653 1088 
L 4653 3725 
L 1134 3725 
L 1134 4213 
z
" transform="scale(0.015625)"/>
       <path id="IPAexGothic-30ad" d="M 2919 5056 
L 3169 3834 
L 4916 4134 
L 5000 3688 
L 3253 3397 
L 3475 2284 
L 5634 2656 
L 5722 2194 
L 3566 1844 
L 3969 -147 
L 3475 -263 
L 3072 1759 
L 834 1388 
L 744 1856 
L 2984 2203 
L 2759 3322 
L 1019 3034 
L 941 3488 
L 2669 3750 
L 2428 4959 
L 2919 5056 
z
" transform="scale(0.015625)"/>
       <path id="IPAexGothic-30e5" d="M 1656 3297 
L 4313 3297 
Q 4253 2288 4078 869 
L 5319 869 
L 5319 422 
L 1075 422 
L 1075 869 
L 3578 869 
Q 3725 2069 3775 2856 
L 1656 2856 
L 1656 3297 
z
" transform="scale(0.015625)"/>
       <path id="IPAexGothic-30fc" d="M 588 2688 
L 5809 2688 
L 5809 2175 
L 588 2175 
L 588 2688 
z
" transform="scale(0.015625)"/>
       <path id="IPAexGothic-30c8" d="M 2284 4997 
L 2803 4997 
L 2803 3206 
Q 4088 2619 5216 1888 
L 4878 1369 
Q 3819 2175 2803 2688 
L 2803 -184 
L 2284 -184 
L 2284 4997 
z
" transform="scale(0.015625)"/>
      </defs>
      <use xlink:href="#IPAexGothic-30a8"/>
      <use xlink:href="#IPAexGothic-30b3" x="100"/>
      <use xlink:href="#IPAexGothic-30ad" x="200"/>
      <use xlink:href="#IPAexGothic-30e5" x="300"/>
      <use xlink:href="#IPAexGothic-30fc" x="400"/>
      <use xlink:href="#IPAexGothic-30c8" x="500"/>
      <use xlink:href="#IPAexGothic-306e" x="600"/>
      <use xlink:href="#IPAexGothic-96fb" x="700"/>
      <use xlink:href="#IPAexGothic-529b" x="800"/>
      <use xlink:href="#IPAexGothic-4f7f" x="900"/>
      <use xlink:href="#IPAexGothic-7528" x="1000"/>
      <use xlink:href="#IPAexGothic-91cf" x="1100"/>
     </g>
    </g>
    <g id="line2d_34">
     <path d="M 491 93.611875 
L 501 93.611875 
L 511 93.611875 
" style="fill: none; stroke-dasharray: 5.55,2.4; stroke-dashoffset: 0; stroke: #2ca02c; stroke-width: 1.5"/>
    </g>
    <g id="text_20">
     <!-- 合計 -->
     <g transform="translate(519 97.111875) scale(0.1 -0.1)">
      <defs>
       <path id="IPAexGothic-5408" d="M 1831 3188 
L 4653 3188 
L 4653 2778 
L 1747 2778 
L 1747 3125 
Q 1275 2778 594 2453 
L 294 2828 
Q 2006 3509 2891 5147 
L 3431 5147 
Q 4331 3806 6125 3003 
L 5831 2588 
Q 4119 3416 3175 4731 
Q 2650 3806 1831 3188 
z
M 5113 2088 
L 5113 -450 
L 4638 -450 
L 4638 -97 
L 1766 -97 
L 1766 -450 
L 1284 -450 
L 1284 2088 
L 5113 2088 
z
M 1766 1691 
L 1766 300 
L 4638 300 
L 4638 1691 
L 1766 1691 
z
" transform="scale(0.015625)"/>
       <path id="IPAexGothic-8a08" d="M 2853 1684 
L 2853 -416 
L 2413 -416 
L 2413 -128 
L 1088 -128 
L 1088 -447 
L 647 -447 
L 647 1684 
L 2853 1684 
z
M 1088 1300 
L 1088 256 
L 2413 256 
L 2413 1300 
L 1088 1300 
z
M 4322 3225 
L 4322 5178 
L 4781 5178 
L 4781 3225 
L 6063 3225 
L 6063 2797 
L 4781 2797 
L 4781 -447 
L 4322 -447 
L 4322 2797 
L 3063 2797 
L 3063 3225 
L 4322 3225 
z
M 781 5044 
L 2722 5044 
L 2722 4647 
L 781 4647 
L 781 5044 
z
M 384 4206 
L 3150 4206 
L 3150 3803 
L 384 3803 
L 384 4206 
z
M 781 3359 
L 2722 3359 
L 2722 2963 
L 781 2963 
L 781 3359 
z
M 781 2522 
L 2722 2522 
L 2722 2125 
L 781 2125 
L 781 2522 
z
" transform="scale(0.015625)"/>
      </defs>
      <use xlink:href="#IPAexGothic-5408"/>
      <use xlink:href="#IPAexGothic-8a08" x="100"/>
     </g>
    </g>
   </g>
  </g>
 </g>
 <defs>
  <clipPath id="p0518a6017b">
   <rect x="90" y="51.84" width="558" height="332.64"/>
  </clipPath>
 </defs>
</svg>
